#N canvas 663 33 1039 484 10;
#X declare -lib mrpeach;
#X obj 219 407 dac~;
#X msg 342 51 pd dsp 1 \;;
#X obj 328 14 loadbang;
#X obj 279 322 *~;
#X obj 302 261 line~;
#X text 339 254 envelope;
#X text 339 267 generator;
#X msg 321 230 0 1000;
#N canvas 502 272 773 550 osc 1;
#X obj 71 59 import mrpeach;
#X floatatom 434 324 3 0 0 0 - - -;
#X floatatom 461 324 3 0 0 0 - - -;
#X floatatom 488 324 3 0 0 0 - - -;
#X floatatom 515 324 3 0 0 0 - - -;
#X floatatom 542 325 5 0 0 0 - - -;
#X obj 434 298 unpack 0 0 0 0 0;
#X msg 211 110 status;
#X floatatom 313 245 9 0 0 0 - - -;
#X obj 494 271 tgl 15 0 empty empty empty 17 7 0 10 -4034 -1 -1 0 1
;
#X floatatom 373 271 9 0 0 0 - - -;
#X text 10 110 get status on right outlet:;
#X text 206 245 bytes received:;
#X text 221 269 total bytes received:;
#X text 391 323 from:;
#X obj 211 314 spigot;
#X obj 250 294 tgl 15 0 empty empty enable_print: -77 8 0 10 -4034
-1 -1 0 1;
#X obj 211 339 print received;
#X obj 313 212 route received total from multicast;
#X text 296 147 change port to listen on;
#X msg 222 149 port 12345;
#X obj 211 180 udpreceive 12345;
#X obj 163 414 route /closestBlob;
#X obj 163 446 print;
#X obj 170 381 unpackOSC;
#X floatatom 115 473 5 0 0 0 - - -;
#X obj 140 511 s value;
#X connect 6 0 1 0;
#X connect 6 1 2 0;
#X connect 6 2 3 0;
#X connect 6 3 4 0;
#X connect 6 4 5 0;
#X connect 7 0 21 0;
#X connect 15 0 17 0;
#X connect 16 0 15 1;
#X connect 18 0 8 0;
#X connect 18 1 10 0;
#X connect 18 2 6 0;
#X connect 18 3 9 0;
#X connect 20 0 21 0;
#X connect 21 0 15 0;
#X connect 21 0 24 0;
#X connect 21 1 18 0;
#X connect 22 0 23 0;
#X connect 22 0 25 0;
#X connect 24 0 22 0;
#X connect 25 0 26 0;
#X restore 60 77 pd osc;
#X obj 239 142 r on;
#X obj 454 178 r off;
#X obj 215 220 osc~ 12;
#X msg 302 205 2.5 1000;
#X obj 150 521 s value;
#X obj 448 288 r value;
#X floatatom 446 306 5 0 0 0 - - -;
#X text 328 329 comment;
#X floatatom 399 365 5 0 0 0 - - -;
#X obj 400 328 * 8;
#X obj 137 220 osc~ 12.9;
#X connect 2 0 1 0;
#X connect 2 0 12 0;
#X connect 3 0 0 1;
#X connect 3 0 0 0;
#X connect 4 0 3 1;
#X connect 7 0 4 0;
#X connect 9 0 12 0;
#X connect 10 0 7 0;
#X connect 11 0 3 0;
#X connect 12 0 4 0;
#X connect 14 0 15 0;
#X connect 15 0 18 0;
#X connect 17 0 4 0;
#X connect 18 0 17 0;
#X connect 19 0 3 0;
