#N canvas 151 292 1075 669 10;
#X obj 842 473 cnv 15 100 60 empty empty empty 20 12 0 14 -195568 -66577
0;
#N canvas 628 593 644 362 gemwin 0;
#X obj 98 249 gemwin;
#X obj 56 123 outlet;
#X obj 67 10 inlet;
#X obj 67 41 route create;
#X msg 67 70 set destroy;
#X msg 157 73 set create;
#X msg 38 176 destroy;
#X obj 357 42 r loadbang;
#X msg 108 176 reset \, dimen 800 600 \, offset 1000 0 \, create \,
1;
#X text 127 205 THIS IS WHERE YOU CAN EDIT THE OUTPUT RESOLUTION AND
POSITION;
#X connect 2 0 3 0;
#X connect 3 0 4 0;
#X connect 3 0 8 0;
#X connect 3 1 5 0;
#X connect 3 1 6 0;
#X connect 4 0 1 0;
#X connect 5 0 1 0;
#X connect 6 0 0 0;
#X connect 7 0 8 0;
#X connect 8 0 0 0;
#X restore 847 512 pd gemwin;
#X msg 847 493 destroy;
#X text 843 472 Create window:;
#X obj 148 246 gemhead;
#X obj 252 368 pix_texture;
#X msg 251 253 reset;
#X text 354 316 threshold;
#X obj 252 336 pix_background;
#X msg 333 301 \$1 \$1 \$1;
#X floatatom 333 282 5 0 0 0 - - -;
#X obj 148 275 pix_video;
#X msg 333 258 0.1;
#X obj 251 169 tgl 15 0 empty empty empty 17 7 0 10 -262144 -1 -1 1
1;
#X obj 251 202 metro 10000;
#X obj 335 83 loadbang;
#X obj 365 125 s loadbang;
#X text 741 511 CLICK TO OPEN >;
#X text 54 276 WEBCAM OBJ >;
#X text 163 335 WEBCAM OBJ >;
#X obj 252 404 rectangle 5.4 4;
#X msg 251 139 1;
#X connect 1 0 2 0;
#X connect 2 0 1 0;
#X connect 4 0 11 0;
#X connect 5 0 20 0;
#X connect 6 0 8 0;
#X connect 8 0 5 0;
#X connect 9 0 8 1;
#X connect 10 0 9 0;
#X connect 11 0 8 0;
#X connect 12 0 10 0;
#X connect 13 0 14 0;
#X connect 14 0 6 0;
#X connect 15 0 12 0;
#X connect 15 0 16 0;
#X connect 15 0 21 0;
#X connect 21 0 13 0;
